%TF.GenerationSoftware,KiCad,Pcbnew,7.0.1*%
%TF.CreationDate,2023-05-01T00:07:51-04:00*%
%TF.ProjectId,mosaic,6d6f7361-6963-42e6-9b69-6361645f7063,v1.0.0*%
%TF.SameCoordinates,Original*%
%TF.FileFunction,Legend,Top*%
%TF.FilePolarity,Positive*%
%FSLAX46Y46*%
G04 Gerber Fmt 4.6, Leading zero omitted, Abs format (unit mm)*
G04 Created by KiCad (PCBNEW 7.0.1) date 2023-05-01 00:07:51*
%MOMM*%
%LPD*%
G01*
G04 APERTURE LIST*
%ADD10C,0.150000*%
%ADD11C,0.800000*%
%ADD12C,4.500000*%
%ADD13C,1.801800*%
%ADD14C,3.529000*%
%ADD15C,2.132000*%
%ADD16C,1.600000*%
%ADD17O,2.300000X1.700000*%
%ADD18O,1.600000X2.600000*%
%ADD19O,2.600000X1.600000*%
G04 APERTURE END LIST*
D10*
X175380951Y-124412619D02*
X175380951Y-125126904D01*
X175380951Y-125126904D02*
X175333332Y-125269761D01*
X175333332Y-125269761D02*
X175238094Y-125365000D01*
X175238094Y-125365000D02*
X175095237Y-125412619D01*
X175095237Y-125412619D02*
X174999999Y-125412619D01*
X176333332Y-125412619D02*
X175857142Y-125412619D01*
X175857142Y-125412619D02*
X175857142Y-124412619D01*
X177238094Y-125317380D02*
X177190475Y-125365000D01*
X177190475Y-125365000D02*
X177047618Y-125412619D01*
X177047618Y-125412619D02*
X176952380Y-125412619D01*
X176952380Y-125412619D02*
X176809523Y-125365000D01*
X176809523Y-125365000D02*
X176714285Y-125269761D01*
X176714285Y-125269761D02*
X176666666Y-125174523D01*
X176666666Y-125174523D02*
X176619047Y-124984047D01*
X176619047Y-124984047D02*
X176619047Y-124841190D01*
X176619047Y-124841190D02*
X176666666Y-124650714D01*
X176666666Y-124650714D02*
X176714285Y-124555476D01*
X176714285Y-124555476D02*
X176809523Y-124460238D01*
X176809523Y-124460238D02*
X176952380Y-124412619D01*
X176952380Y-124412619D02*
X177047618Y-124412619D01*
X177047618Y-124412619D02*
X177190475Y-124460238D01*
X177190475Y-124460238D02*
X177238094Y-124507857D01*
X177952380Y-124412619D02*
X177952380Y-125126904D01*
X177952380Y-125126904D02*
X177904761Y-125269761D01*
X177904761Y-125269761D02*
X177809523Y-125365000D01*
X177809523Y-125365000D02*
X177666666Y-125412619D01*
X177666666Y-125412619D02*
X177571428Y-125412619D01*
X178904761Y-125412619D02*
X178428571Y-125412619D01*
X178428571Y-125412619D02*
X178428571Y-124412619D01*
X179809523Y-125317380D02*
X179761904Y-125365000D01*
X179761904Y-125365000D02*
X179619047Y-125412619D01*
X179619047Y-125412619D02*
X179523809Y-125412619D01*
X179523809Y-125412619D02*
X179380952Y-125365000D01*
X179380952Y-125365000D02*
X179285714Y-125269761D01*
X179285714Y-125269761D02*
X179238095Y-125174523D01*
X179238095Y-125174523D02*
X179190476Y-124984047D01*
X179190476Y-124984047D02*
X179190476Y-124841190D01*
X179190476Y-124841190D02*
X179238095Y-124650714D01*
X179238095Y-124650714D02*
X179285714Y-124555476D01*
X179285714Y-124555476D02*
X179380952Y-124460238D01*
X179380952Y-124460238D02*
X179523809Y-124412619D01*
X179523809Y-124412619D02*
X179619047Y-124412619D01*
X179619047Y-124412619D02*
X179761904Y-124460238D01*
X179761904Y-124460238D02*
X179809523Y-124507857D01*
X180523809Y-124412619D02*
X180523809Y-125126904D01*
X180523809Y-125126904D02*
X180476190Y-125269761D01*
X180476190Y-125269761D02*
X180380952Y-125365000D01*
X180380952Y-125365000D02*
X180238095Y-125412619D01*
X180238095Y-125412619D02*
X180142857Y-125412619D01*
X181476190Y-125412619D02*
X181000000Y-125412619D01*
X181000000Y-125412619D02*
X181000000Y-124412619D01*
X182380952Y-125317380D02*
X182333333Y-125365000D01*
X182333333Y-125365000D02*
X182190476Y-125412619D01*
X182190476Y-125412619D02*
X182095238Y-125412619D01*
X182095238Y-125412619D02*
X181952381Y-125365000D01*
X181952381Y-125365000D02*
X181857143Y-125269761D01*
X181857143Y-125269761D02*
X181809524Y-125174523D01*
X181809524Y-125174523D02*
X181761905Y-124984047D01*
X181761905Y-124984047D02*
X181761905Y-124841190D01*
X181761905Y-124841190D02*
X181809524Y-124650714D01*
X181809524Y-124650714D02*
X181857143Y-124555476D01*
X181857143Y-124555476D02*
X181952381Y-124460238D01*
X181952381Y-124460238D02*
X182095238Y-124412619D01*
X182095238Y-124412619D02*
X182190476Y-124412619D01*
X182190476Y-124412619D02*
X182333333Y-124460238D01*
X182333333Y-124460238D02*
X182380952Y-124507857D01*
X183095238Y-124412619D02*
X183095238Y-125126904D01*
X183095238Y-125126904D02*
X183047619Y-125269761D01*
X183047619Y-125269761D02*
X182952381Y-125365000D01*
X182952381Y-125365000D02*
X182809524Y-125412619D01*
X182809524Y-125412619D02*
X182714286Y-125412619D01*
X184047619Y-125412619D02*
X183571429Y-125412619D01*
X183571429Y-125412619D02*
X183571429Y-124412619D01*
X184952381Y-125317380D02*
X184904762Y-125365000D01*
X184904762Y-125365000D02*
X184761905Y-125412619D01*
X184761905Y-125412619D02*
X184666667Y-125412619D01*
X184666667Y-125412619D02*
X184523810Y-125365000D01*
X184523810Y-125365000D02*
X184428572Y-125269761D01*
X184428572Y-125269761D02*
X184380953Y-125174523D01*
X184380953Y-125174523D02*
X184333334Y-124984047D01*
X184333334Y-124984047D02*
X184333334Y-124841190D01*
X184333334Y-124841190D02*
X184380953Y-124650714D01*
X184380953Y-124650714D02*
X184428572Y-124555476D01*
X184428572Y-124555476D02*
X184523810Y-124460238D01*
X184523810Y-124460238D02*
X184666667Y-124412619D01*
X184666667Y-124412619D02*
X184761905Y-124412619D01*
X184761905Y-124412619D02*
X184904762Y-124460238D01*
X184904762Y-124460238D02*
X184952381Y-124507857D01*
X192928572Y-144962619D02*
X192928572Y-144295952D01*
X192928572Y-144391190D02*
X192976191Y-144343571D01*
X192976191Y-144343571D02*
X193071429Y-144295952D01*
X193071429Y-144295952D02*
X193214286Y-144295952D01*
X193214286Y-144295952D02*
X193309524Y-144343571D01*
X193309524Y-144343571D02*
X193357143Y-144438809D01*
X193357143Y-144438809D02*
X193357143Y-144962619D01*
X193357143Y-144438809D02*
X193404762Y-144343571D01*
X193404762Y-144343571D02*
X193500000Y-144295952D01*
X193500000Y-144295952D02*
X193642857Y-144295952D01*
X193642857Y-144295952D02*
X193738096Y-144343571D01*
X193738096Y-144343571D02*
X193785715Y-144438809D01*
X193785715Y-144438809D02*
X193785715Y-144962619D01*
X194404762Y-144962619D02*
X194309524Y-144915000D01*
X194309524Y-144915000D02*
X194261905Y-144867380D01*
X194261905Y-144867380D02*
X194214286Y-144772142D01*
X194214286Y-144772142D02*
X194214286Y-144486428D01*
X194214286Y-144486428D02*
X194261905Y-144391190D01*
X194261905Y-144391190D02*
X194309524Y-144343571D01*
X194309524Y-144343571D02*
X194404762Y-144295952D01*
X194404762Y-144295952D02*
X194547619Y-144295952D01*
X194547619Y-144295952D02*
X194642857Y-144343571D01*
X194642857Y-144343571D02*
X194690476Y-144391190D01*
X194690476Y-144391190D02*
X194738095Y-144486428D01*
X194738095Y-144486428D02*
X194738095Y-144772142D01*
X194738095Y-144772142D02*
X194690476Y-144867380D01*
X194690476Y-144867380D02*
X194642857Y-144915000D01*
X194642857Y-144915000D02*
X194547619Y-144962619D01*
X194547619Y-144962619D02*
X194404762Y-144962619D01*
X195119048Y-144915000D02*
X195214286Y-144962619D01*
X195214286Y-144962619D02*
X195404762Y-144962619D01*
X195404762Y-144962619D02*
X195500000Y-144915000D01*
X195500000Y-144915000D02*
X195547619Y-144819761D01*
X195547619Y-144819761D02*
X195547619Y-144772142D01*
X195547619Y-144772142D02*
X195500000Y-144676904D01*
X195500000Y-144676904D02*
X195404762Y-144629285D01*
X195404762Y-144629285D02*
X195261905Y-144629285D01*
X195261905Y-144629285D02*
X195166667Y-144581666D01*
X195166667Y-144581666D02*
X195119048Y-144486428D01*
X195119048Y-144486428D02*
X195119048Y-144438809D01*
X195119048Y-144438809D02*
X195166667Y-144343571D01*
X195166667Y-144343571D02*
X195261905Y-144295952D01*
X195261905Y-144295952D02*
X195404762Y-144295952D01*
X195404762Y-144295952D02*
X195500000Y-144343571D01*
X196404762Y-144962619D02*
X196404762Y-144438809D01*
X196404762Y-144438809D02*
X196357143Y-144343571D01*
X196357143Y-144343571D02*
X196261905Y-144295952D01*
X196261905Y-144295952D02*
X196071429Y-144295952D01*
X196071429Y-144295952D02*
X195976191Y-144343571D01*
X196404762Y-144915000D02*
X196309524Y-144962619D01*
X196309524Y-144962619D02*
X196071429Y-144962619D01*
X196071429Y-144962619D02*
X195976191Y-144915000D01*
X195976191Y-144915000D02*
X195928572Y-144819761D01*
X195928572Y-144819761D02*
X195928572Y-144724523D01*
X195928572Y-144724523D02*
X195976191Y-144629285D01*
X195976191Y-144629285D02*
X196071429Y-144581666D01*
X196071429Y-144581666D02*
X196309524Y-144581666D01*
X196309524Y-144581666D02*
X196404762Y-144534047D01*
X196880953Y-144962619D02*
X196880953Y-144295952D01*
X196880953Y-143962619D02*
X196833334Y-144010238D01*
X196833334Y-144010238D02*
X196880953Y-144057857D01*
X196880953Y-144057857D02*
X196928572Y-144010238D01*
X196928572Y-144010238D02*
X196880953Y-143962619D01*
X196880953Y-143962619D02*
X196880953Y-144057857D01*
X197785714Y-144915000D02*
X197690476Y-144962619D01*
X197690476Y-144962619D02*
X197500000Y-144962619D01*
X197500000Y-144962619D02*
X197404762Y-144915000D01*
X197404762Y-144915000D02*
X197357143Y-144867380D01*
X197357143Y-144867380D02*
X197309524Y-144772142D01*
X197309524Y-144772142D02*
X197309524Y-144486428D01*
X197309524Y-144486428D02*
X197357143Y-144391190D01*
X197357143Y-144391190D02*
X197404762Y-144343571D01*
X197404762Y-144343571D02*
X197500000Y-144295952D01*
X197500000Y-144295952D02*
X197690476Y-144295952D01*
X197690476Y-144295952D02*
X197785714Y-144343571D01*
X198880953Y-144295952D02*
X199119048Y-144962619D01*
X199119048Y-144962619D02*
X199357143Y-144295952D01*
X199928572Y-143962619D02*
X200023810Y-143962619D01*
X200023810Y-143962619D02*
X200119048Y-144010238D01*
X200119048Y-144010238D02*
X200166667Y-144057857D01*
X200166667Y-144057857D02*
X200214286Y-144153095D01*
X200214286Y-144153095D02*
X200261905Y-144343571D01*
X200261905Y-144343571D02*
X200261905Y-144581666D01*
X200261905Y-144581666D02*
X200214286Y-144772142D01*
X200214286Y-144772142D02*
X200166667Y-144867380D01*
X200166667Y-144867380D02*
X200119048Y-144915000D01*
X200119048Y-144915000D02*
X200023810Y-144962619D01*
X200023810Y-144962619D02*
X199928572Y-144962619D01*
X199928572Y-144962619D02*
X199833334Y-144915000D01*
X199833334Y-144915000D02*
X199785715Y-144867380D01*
X199785715Y-144867380D02*
X199738096Y-144772142D01*
X199738096Y-144772142D02*
X199690477Y-144581666D01*
X199690477Y-144581666D02*
X199690477Y-144343571D01*
X199690477Y-144343571D02*
X199738096Y-144153095D01*
X199738096Y-144153095D02*
X199785715Y-144057857D01*
X199785715Y-144057857D02*
X199833334Y-144010238D01*
X199833334Y-144010238D02*
X199928572Y-143962619D01*
X200690477Y-144867380D02*
X200738096Y-144915000D01*
X200738096Y-144915000D02*
X200690477Y-144962619D01*
X200690477Y-144962619D02*
X200642858Y-144915000D01*
X200642858Y-144915000D02*
X200690477Y-144867380D01*
X200690477Y-144867380D02*
X200690477Y-144962619D01*
X201690476Y-144962619D02*
X201119048Y-144962619D01*
X201404762Y-144962619D02*
X201404762Y-143962619D01*
X201404762Y-143962619D02*
X201309524Y-144105476D01*
X201309524Y-144105476D02*
X201214286Y-144200714D01*
X201214286Y-144200714D02*
X201119048Y-144248333D01*
X202119048Y-144867380D02*
X202166667Y-144915000D01*
X202166667Y-144915000D02*
X202119048Y-144962619D01*
X202119048Y-144962619D02*
X202071429Y-144915000D01*
X202071429Y-144915000D02*
X202119048Y-144867380D01*
X202119048Y-144867380D02*
X202119048Y-144962619D01*
X202785714Y-143962619D02*
X202880952Y-143962619D01*
X202880952Y-143962619D02*
X202976190Y-144010238D01*
X202976190Y-144010238D02*
X203023809Y-144057857D01*
X203023809Y-144057857D02*
X203071428Y-144153095D01*
X203071428Y-144153095D02*
X203119047Y-144343571D01*
X203119047Y-144343571D02*
X203119047Y-144581666D01*
X203119047Y-144581666D02*
X203071428Y-144772142D01*
X203071428Y-144772142D02*
X203023809Y-144867380D01*
X203023809Y-144867380D02*
X202976190Y-144915000D01*
X202976190Y-144915000D02*
X202880952Y-144962619D01*
X202880952Y-144962619D02*
X202785714Y-144962619D01*
X202785714Y-144962619D02*
X202690476Y-144915000D01*
X202690476Y-144915000D02*
X202642857Y-144867380D01*
X202642857Y-144867380D02*
X202595238Y-144772142D01*
X202595238Y-144772142D02*
X202547619Y-144581666D01*
X202547619Y-144581666D02*
X202547619Y-144343571D01*
X202547619Y-144343571D02*
X202595238Y-144153095D01*
X202595238Y-144153095D02*
X202642857Y-144057857D01*
X202642857Y-144057857D02*
X202690476Y-144010238D01*
X202690476Y-144010238D02*
X202785714Y-143962619D01*
%TO.C,_2*%
%TO.C,_3*%
%TO.C,_4*%
%TO.C,*%
%TD*%
%LPC*%
D11*
%TO.C,_2*%
X151350000Y-110500000D03*
X151833274Y-109333274D03*
X151833274Y-111666726D03*
X153000000Y-108850000D03*
D12*
X153000000Y-110500000D03*
D11*
X153000000Y-112150000D03*
X154166726Y-109333274D03*
X154166726Y-111666726D03*
X154650000Y-110500000D03*
%TD*%
D13*
%TO.C,S14*%
X210500000Y-119000000D03*
D14*
X216000000Y-119000000D03*
D13*
X221500000Y-119000000D03*
D15*
X211000000Y-115200000D03*
X221000000Y-115200000D03*
X216000000Y-113100000D03*
X216000000Y-113100000D03*
%TD*%
D13*
%TO.C,S5*%
X156500000Y-119000000D03*
D14*
X162000000Y-119000000D03*
D13*
X167500000Y-119000000D03*
D15*
X157000000Y-115200000D03*
X167000000Y-115200000D03*
X162000000Y-113100000D03*
X162000000Y-113100000D03*
%TD*%
D13*
%TO.C,S4*%
X156500000Y-136000000D03*
D14*
X162000000Y-136000000D03*
D13*
X167500000Y-136000000D03*
D15*
X157000000Y-132200000D03*
X167000000Y-132200000D03*
X162000000Y-130100000D03*
X162000000Y-130100000D03*
%TD*%
D13*
%TO.C,S2*%
X138500000Y-119000000D03*
D14*
X144000000Y-119000000D03*
D13*
X149500000Y-119000000D03*
D15*
X139000000Y-115200000D03*
X149000000Y-115200000D03*
X144000000Y-113100000D03*
X144000000Y-113100000D03*
%TD*%
D13*
%TO.C,S6*%
X156500000Y-102000000D03*
D14*
X162000000Y-102000000D03*
D13*
X167500000Y-102000000D03*
D15*
X157000000Y-98200000D03*
X167000000Y-98200000D03*
X162000000Y-96100000D03*
X162000000Y-96100000D03*
%TD*%
D13*
%TO.C,S8*%
X174500000Y-119000000D03*
D14*
X180000000Y-119000000D03*
D13*
X185500000Y-119000000D03*
D15*
X175000000Y-115200000D03*
X185000000Y-115200000D03*
X180000000Y-113100000D03*
X180000000Y-113100000D03*
%TD*%
D13*
%TO.C,S10*%
X192500000Y-136000000D03*
D14*
X198000000Y-136000000D03*
D13*
X203500000Y-136000000D03*
D15*
X193000000Y-132200000D03*
X203000000Y-132200000D03*
X198000000Y-130100000D03*
X198000000Y-130100000D03*
%TD*%
D11*
%TO.C,_3*%
X197340000Y-161500000D03*
X197823274Y-160333274D03*
X197823274Y-162666726D03*
X198990000Y-159850000D03*
D12*
X198990000Y-161500000D03*
D11*
X198990000Y-163150000D03*
X200156726Y-160333274D03*
X200156726Y-162666726D03*
X200640000Y-161500000D03*
%TD*%
D13*
%TO.C,S7*%
X174500000Y-136000000D03*
D14*
X180000000Y-136000000D03*
D13*
X185500000Y-136000000D03*
D15*
X175000000Y-132200000D03*
X185000000Y-132200000D03*
X180000000Y-130100000D03*
X180000000Y-130100000D03*
%TD*%
D13*
%TO.C,S3*%
X138500000Y-102000000D03*
D14*
X144000000Y-102000000D03*
D13*
X149500000Y-102000000D03*
D15*
X139000000Y-98200000D03*
X149000000Y-98200000D03*
X144000000Y-96100000D03*
X144000000Y-96100000D03*
%TD*%
D13*
%TO.C,S18*%
X220490000Y-170000000D03*
D14*
X225990000Y-170000000D03*
D13*
X231490000Y-170000000D03*
D15*
X220990000Y-166200000D03*
X230990000Y-166200000D03*
X225990000Y-164100000D03*
X225990000Y-164100000D03*
%TD*%
D16*
%TO.C,TRRS1*%
X233300000Y-150700000D03*
X226300000Y-150700000D03*
X233300000Y-153000000D03*
X226300000Y-153000000D03*
D17*
X223600000Y-150700000D03*
X223600000Y-153000000D03*
X224700000Y-148400000D03*
X224700000Y-155300000D03*
X228700000Y-148400000D03*
X228700000Y-155300000D03*
X231700000Y-148400000D03*
X231700000Y-155300000D03*
%TD*%
D13*
%TO.C,S1*%
X138500000Y-136000000D03*
D14*
X144000000Y-136000000D03*
D13*
X149500000Y-136000000D03*
D15*
X139000000Y-132200000D03*
X149000000Y-132200000D03*
X144000000Y-130100000D03*
X144000000Y-130100000D03*
%TD*%
D11*
%TO.C,_4*%
X205350000Y-110500000D03*
X205833274Y-109333274D03*
X205833274Y-111666726D03*
X207000000Y-108850000D03*
D12*
X207000000Y-110500000D03*
D11*
X207000000Y-112150000D03*
X208166726Y-109333274D03*
X208166726Y-111666726D03*
X208650000Y-110500000D03*
%TD*%
D13*
%TO.C,S12*%
X192500000Y-102000000D03*
D14*
X198000000Y-102000000D03*
D13*
X203500000Y-102000000D03*
D15*
X193000000Y-98200000D03*
X203000000Y-98200000D03*
X198000000Y-96100000D03*
X198000000Y-96100000D03*
%TD*%
D18*
%TO.C,*%
X136540000Y-146580000D03*
X139080000Y-146580000D03*
X141620000Y-146580000D03*
X144160000Y-146580000D03*
X146700000Y-146580000D03*
X149240000Y-146580000D03*
X151780000Y-146580000D03*
X154320000Y-146580000D03*
X156860000Y-146580000D03*
D19*
X157360000Y-149620000D03*
X157360000Y-152160000D03*
X157360000Y-154700000D03*
X157360000Y-157240000D03*
X157360000Y-159780000D03*
D18*
X156860000Y-162820000D03*
X154320000Y-162820000D03*
X151780000Y-162820000D03*
X149240000Y-162820000D03*
X146700000Y-162820000D03*
X144160000Y-162820000D03*
X141620000Y-162820000D03*
X139080000Y-162820000D03*
X136540000Y-162820000D03*
%TD*%
D13*
%TO.C,S13*%
X210500000Y-136000000D03*
D14*
X216000000Y-136000000D03*
D13*
X221500000Y-136000000D03*
D15*
X211000000Y-132200000D03*
X221000000Y-132200000D03*
X216000000Y-130100000D03*
X216000000Y-130100000D03*
%TD*%
D13*
%TO.C,S11*%
X192500000Y-119000000D03*
D14*
X198000000Y-119000000D03*
D13*
X203500000Y-119000000D03*
D15*
X193000000Y-115200000D03*
X203000000Y-115200000D03*
X198000000Y-113100000D03*
X198000000Y-113100000D03*
%TD*%
D13*
%TO.C,S15*%
X210500000Y-102000000D03*
D14*
X216000000Y-102000000D03*
D13*
X221500000Y-102000000D03*
D15*
X211000000Y-98200000D03*
X221000000Y-98200000D03*
X216000000Y-96100000D03*
X216000000Y-96100000D03*
%TD*%
D13*
%TO.C,S9*%
X174500000Y-102000000D03*
D14*
X180000000Y-102000000D03*
D13*
X185500000Y-102000000D03*
D15*
X175000000Y-98200000D03*
X185000000Y-98200000D03*
X180000000Y-96100000D03*
X180000000Y-96100000D03*
%TD*%
D13*
%TO.C,S16*%
X184490000Y-170000000D03*
D14*
X189990000Y-170000000D03*
D13*
X195490000Y-170000000D03*
D15*
X184990000Y-166200000D03*
X194990000Y-166200000D03*
X189990000Y-164100000D03*
X189990000Y-164100000D03*
%TD*%
D13*
%TO.C,S17*%
X202490000Y-170000000D03*
D14*
X207990000Y-170000000D03*
D13*
X213490000Y-170000000D03*
D15*
X202990000Y-166200000D03*
X212990000Y-166200000D03*
X207990000Y-164100000D03*
X207990000Y-164100000D03*
%TD*%
M02*
