M48
; DRILL file {KiCad 7.0.1} date Sun 30 Apr 2023 06:57:33 PM EDT
; FORMAT={-:-/ absolute / metric / decimal}
; #@! TF.CreationDate,2023-04-30T18:57:33-04:00
; #@! TF.GenerationSoftware,Kicad,Pcbnew,7.0.1
; #@! TF.FileFunction,NonPlated,1,2,NPTH
FMAT,2
METRIC
; #@! TA.AperFunction,NonPlated,NPTH,ComponentDrill
T1C1.500
; #@! TA.AperFunction,NonPlated,NPTH,ComponentDrill
T2C1.702
; #@! TA.AperFunction,NonPlated,NPTH,ComponentDrill
T3C3.429
%
G90
G05
T1
X226.3Y-150.7
X226.3Y-153.0
X233.3Y-150.7
X233.3Y-153.0
T2
X138.5Y-102.0
X138.5Y-119.0
X138.5Y-136.0
X149.5Y-102.0
X149.5Y-119.0
X149.5Y-136.0
X156.5Y-102.0
X156.5Y-119.0
X156.5Y-136.0
X167.5Y-102.0
X167.5Y-119.0
X167.5Y-136.0
X174.5Y-102.0
X174.5Y-119.0
X174.5Y-136.0
X184.49Y-170.0
X185.5Y-102.0
X185.5Y-119.0
X185.5Y-136.0
X192.5Y-102.0
X192.5Y-119.0
X192.5Y-136.0
X195.49Y-170.0
X202.49Y-170.0
X203.5Y-102.0
X203.5Y-119.0
X203.5Y-136.0
X210.5Y-102.0
X210.5Y-119.0
X210.5Y-136.0
X213.49Y-170.0
X220.49Y-170.0
X221.5Y-102.0
X221.5Y-119.0
X221.5Y-136.0
X231.49Y-170.0
T3
X144.0Y-102.0
X144.0Y-119.0
X144.0Y-136.0
X162.0Y-102.0
X162.0Y-119.0
X162.0Y-136.0
X180.0Y-102.0
X180.0Y-119.0
X180.0Y-136.0
X189.99Y-170.0
X198.0Y-102.0
X198.0Y-119.0
X198.0Y-136.0
X207.99Y-170.0
X216.0Y-102.0
X216.0Y-119.0
X216.0Y-136.0
X225.99Y-170.0
T0
M30
