M48
; DRILL file {KiCad 7.0.1} date Sun 30 Apr 2023 06:57:33 PM EDT
; FORMAT={-:-/ absolute / metric / decimal}
; #@! TF.CreationDate,2023-04-30T18:57:33-04:00
; #@! TF.GenerationSoftware,Kicad,Pcbnew,7.0.1
; #@! TF.FileFunction,Plated,1,2,PTH
FMAT,2
METRIC
; #@! TA.AperFunction,Plated,PTH,ViaDrill
T1C0.400
; #@! TA.AperFunction,Plated,PTH,ComponentDrill
T2C0.400
; #@! TA.AperFunction,Plated,PTH,ComponentDrill
T3C0.900
; #@! TA.AperFunction,Plated,PTH,ComponentDrill
T4C1.000
; #@! TA.AperFunction,Plated,PTH,ComponentDrill
T5C1.270
; #@! TA.AperFunction,Plated,PTH,ComponentDrill
T6C2.200
%
G90
G05
T1
X158.53Y-143.34
X179.15Y-150.79
X181.01Y-147.13
X181.01Y-149.32
X211.24Y-147.35
X211.26Y-149.47
T2
X151.35Y-110.5
X151.833Y-109.333
X151.833Y-111.667
X153.0Y-108.85
X153.0Y-112.15
X154.167Y-109.333
X154.167Y-111.667
X154.65Y-110.5
X197.34Y-161.5
X197.823Y-160.333
X197.823Y-162.667
X198.99Y-159.85
X198.99Y-163.15
X200.157Y-160.333
X200.157Y-162.667
X200.64Y-161.5
X205.35Y-110.5
X205.833Y-109.333
X205.833Y-111.667
X207.0Y-108.85
X207.0Y-112.15
X208.167Y-109.333
X208.167Y-111.667
X208.65Y-110.5
T4
X136.54Y-147.08
X136.54Y-162.32
X139.08Y-147.08
X139.08Y-162.32
X141.62Y-147.08
X141.62Y-162.32
X144.16Y-147.08
X144.16Y-162.32
X146.7Y-147.08
X146.7Y-162.32
X149.24Y-147.08
X149.24Y-162.32
X151.78Y-147.08
X151.78Y-162.32
X154.32Y-147.08
X154.32Y-162.32
X156.86Y-147.08
X156.86Y-149.62
X156.86Y-152.16
X156.86Y-154.7
X156.86Y-157.24
X156.86Y-159.78
X156.86Y-162.32
T5
X139.0Y-98.2
X139.0Y-115.2
X139.0Y-132.2
X144.0Y-96.1
X144.0Y-96.1
X144.0Y-113.1
X144.0Y-113.1
X144.0Y-130.1
X144.0Y-130.1
X149.0Y-98.2
X149.0Y-115.2
X149.0Y-132.2
X157.0Y-98.2
X157.0Y-115.2
X157.0Y-132.2
X162.0Y-96.1
X162.0Y-96.1
X162.0Y-113.1
X162.0Y-113.1
X162.0Y-130.1
X162.0Y-130.1
X167.0Y-98.2
X167.0Y-115.2
X167.0Y-132.2
X175.0Y-98.2
X175.0Y-115.2
X175.0Y-132.2
X180.0Y-96.1
X180.0Y-96.1
X180.0Y-113.1
X180.0Y-113.1
X180.0Y-130.1
X180.0Y-130.1
X184.99Y-166.2
X185.0Y-98.2
X185.0Y-115.2
X185.0Y-132.2
X189.99Y-164.1
X189.99Y-164.1
X193.0Y-98.2
X193.0Y-115.2
X193.0Y-132.2
X194.99Y-166.2
X198.0Y-96.1
X198.0Y-96.1
X198.0Y-113.1
X198.0Y-113.1
X198.0Y-130.1
X198.0Y-130.1
X202.99Y-166.2
X203.0Y-98.2
X203.0Y-115.2
X203.0Y-132.2
X207.99Y-164.1
X207.99Y-164.1
X211.0Y-98.2
X211.0Y-115.2
X211.0Y-132.2
X212.99Y-166.2
X216.0Y-96.1
X216.0Y-96.1
X216.0Y-113.1
X216.0Y-113.1
X216.0Y-130.1
X216.0Y-130.1
X220.99Y-166.2
X221.0Y-98.2
X221.0Y-115.2
X221.0Y-132.2
X225.99Y-164.1
X225.99Y-164.1
X230.99Y-166.2
T6
X153.0Y-110.5
X198.99Y-161.5
X207.0Y-110.5
T3
G00X223.9Y-150.7
M15
G01X223.3Y-150.7
M16
G05
G00X223.9Y-153.0
M15
G01X223.3Y-153.0
M16
G05
G00X225.0Y-148.4
M15
G01X224.4Y-148.4
M16
G05
G00X225.0Y-155.3
M15
G01X224.4Y-155.3
M16
G05
G00X229.0Y-148.4
M15
G01X228.4Y-148.4
M16
G05
G00X229.0Y-155.3
M15
G01X228.4Y-155.3
M16
G05
G00X232.0Y-148.4
M15
G01X231.4Y-148.4
M16
G05
G00X232.0Y-155.3
M15
G01X231.4Y-155.3
M16
G05
T0
M30
