%TF.GenerationSoftware,KiCad,Pcbnew,8.0.7*%
%TF.CreationDate,2025-01-05T02:21:24-08:00*%
%TF.ProjectId,risha,72697368-612e-46b6-9963-61645f706362,v1.0.0*%
%TF.SameCoordinates,Original*%
%TF.FileFunction,OtherDrawing,Comment*%
%FSLAX46Y46*%
G04 Gerber Fmt 4.6, Leading zero omitted, Abs format (unit mm)*
G04 Created by KiCad (PCBNEW 8.0.7) date 2025-01-05 02:21:24*
%MOMM*%
%LPD*%
G01*
G04 APERTURE LIST*
%ADD10C,0.120000*%
G04 APERTURE END LIST*
D10*
%TO.C,MX8*%
X123825000Y-66675000D02*
X123825000Y-85725000D01*
X123825000Y-85725000D02*
X142875000Y-85725000D01*
X142875000Y-66675000D02*
X123825000Y-66675000D01*
X142875000Y-85725000D02*
X142875000Y-66675000D01*
%TO.C,MX17*%
X173675000Y-110490000D02*
X173675000Y-129540000D01*
X173675000Y-129540000D02*
X192725000Y-129540000D01*
X192725000Y-110490000D02*
X173675000Y-110490000D01*
X192725000Y-129540000D02*
X192725000Y-110490000D01*
%TO.C,MX4*%
X104775000Y-85725000D02*
X104775000Y-104775000D01*
X104775000Y-104775000D02*
X123825000Y-104775000D01*
X123825000Y-85725000D02*
X104775000Y-85725000D01*
X123825000Y-104775000D02*
X123825000Y-85725000D01*
%TO.C,MX10*%
X142875000Y-85725000D02*
X142875000Y-104775000D01*
X142875000Y-104775000D02*
X161925000Y-104775000D01*
X161925000Y-85725000D02*
X142875000Y-85725000D01*
X161925000Y-104775000D02*
X161925000Y-85725000D01*
%TO.C,MX3*%
X85725000Y-47625000D02*
X85725000Y-66675000D01*
X85725000Y-66675000D02*
X104775000Y-66675000D01*
X104775000Y-47625000D02*
X85725000Y-47625000D01*
X104775000Y-66675000D02*
X104775000Y-47625000D01*
%TO.C,MX12*%
X142875000Y-47625000D02*
X142875000Y-66675000D01*
X142875000Y-66675000D02*
X161925000Y-66675000D01*
X161925000Y-47625000D02*
X142875000Y-47625000D01*
X161925000Y-66675000D02*
X161925000Y-47625000D01*
%TO.C,MX14*%
X161925000Y-66675000D02*
X161925000Y-85725000D01*
X161925000Y-85725000D02*
X180975000Y-85725000D01*
X180975000Y-66675000D02*
X161925000Y-66675000D01*
X180975000Y-85725000D02*
X180975000Y-66675000D01*
%TO.C,MX9*%
X123825000Y-47625000D02*
X123825000Y-66675000D01*
X123825000Y-66675000D02*
X142875000Y-66675000D01*
X142875000Y-47625000D02*
X123825000Y-47625000D01*
X142875000Y-66675000D02*
X142875000Y-47625000D01*
%TO.C,MX15*%
X161925000Y-47625000D02*
X161925000Y-66675000D01*
X161925000Y-66675000D02*
X180975000Y-66675000D01*
X180975000Y-47625000D02*
X161925000Y-47625000D01*
X180975000Y-66675000D02*
X180975000Y-47625000D01*
%TO.C,MX13*%
X161925000Y-85725000D02*
X161925000Y-104775000D01*
X161925000Y-104775000D02*
X180975000Y-104775000D01*
X180975000Y-85725000D02*
X161925000Y-85725000D01*
X180975000Y-104775000D02*
X180975000Y-85725000D01*
%TO.C,MX7*%
X123825000Y-85725000D02*
X123825000Y-104775000D01*
X123825000Y-104775000D02*
X142875000Y-104775000D01*
X142875000Y-85725000D02*
X123825000Y-85725000D01*
X142875000Y-104775000D02*
X142875000Y-85725000D01*
%TO.C,MX5*%
X104775000Y-66675000D02*
X104775000Y-85725000D01*
X104775000Y-85725000D02*
X123825000Y-85725000D01*
X123825000Y-66675000D02*
X104775000Y-66675000D01*
X123825000Y-85725000D02*
X123825000Y-66675000D01*
%TO.C,MX6*%
X104775000Y-47625000D02*
X104775000Y-66675000D01*
X104775000Y-66675000D02*
X123825000Y-66675000D01*
X123825000Y-47625000D02*
X104775000Y-47625000D01*
X123825000Y-66675000D02*
X123825000Y-47625000D01*
%TO.C,MX16*%
X154625000Y-110490000D02*
X154625000Y-129540000D01*
X154625000Y-129540000D02*
X173675000Y-129540000D01*
X173675000Y-110490000D02*
X154625000Y-110490000D01*
X173675000Y-129540000D02*
X173675000Y-110490000D01*
%TO.C,MX1*%
X85725000Y-85725000D02*
X85725000Y-104775000D01*
X85725000Y-104775000D02*
X104775000Y-104775000D01*
X104775000Y-85725000D02*
X85725000Y-85725000D01*
X104775000Y-104775000D02*
X104775000Y-85725000D01*
%TO.C,MX2*%
X85725000Y-66675000D02*
X85725000Y-85725000D01*
X85725000Y-85725000D02*
X104775000Y-85725000D01*
X104775000Y-66675000D02*
X85725000Y-66675000D01*
X104775000Y-85725000D02*
X104775000Y-66675000D01*
%TO.C,MX11*%
X142875000Y-66675000D02*
X142875000Y-85725000D01*
X142875000Y-85725000D02*
X161925000Y-85725000D01*
X161925000Y-66675000D02*
X142875000Y-66675000D01*
X161925000Y-85725000D02*
X161925000Y-66675000D01*
%TD*%
M02*
