M48
; DRILL file {KiCad 8.0.7} date 2025-01-05T02:21:24-0800
; FORMAT={-:-/ absolute / metric / decimal}
; #@! TF.CreationDate,2025-01-05T02:21:24-08:00
; #@! TF.GenerationSoftware,Kicad,Pcbnew,8.0.7
; #@! TF.FileFunction,MixedPlating,1,2
FMAT,2
METRIC
; #@! TA.AperFunction,Plated,PTH,ViaDrill
T1C0.400
; #@! TA.AperFunction,Plated,PTH,ViaDrill
T2C0.500
; #@! TA.AperFunction,Plated,PTH,ComponentDrill
T3C0.700
; #@! TA.AperFunction,Plated,PTH,ComponentDrill
T4C1.000
; #@! TA.AperFunction,Plated,PTH,ComponentDrill
T5C1.524
; #@! TA.AperFunction,NonPlated,NPTH,ComponentDrill
T6C1.500
; #@! TA.AperFunction,NonPlated,NPTH,ComponentDrill
T7C1.750
; #@! TA.AperFunction,NonPlated,NPTH,ComponentDrill
T8C3.988
%
G90
G05
T1
X103.5Y-106.75
X107.25Y-126.0
X111.75Y-109.75
X111.75Y-117.5
T2
X90.75Y-127.25
T4
X89.59Y-108.585
X89.59Y-123.825
X92.13Y-108.585
X92.13Y-123.825
X94.67Y-108.585
X94.67Y-123.825
X97.21Y-108.585
X97.21Y-123.825
X99.75Y-108.585
X99.75Y-123.825
X102.29Y-108.585
X102.29Y-123.825
X104.83Y-108.585
X104.83Y-123.825
X107.37Y-108.585
X107.37Y-123.825
X109.91Y-108.585
X109.91Y-111.125
X109.91Y-113.665
X109.91Y-116.205
X109.91Y-118.745
X109.91Y-121.285
X109.91Y-123.825
T5
X91.44Y-54.61
X91.44Y-73.66
X91.44Y-92.71
X92.71Y-52.07
X92.71Y-71.12
X92.71Y-90.17
X97.79Y-52.07
X97.79Y-71.12
X97.79Y-90.17
X99.06Y-54.61
X99.06Y-73.66
X99.06Y-92.71
X110.49Y-54.61
X110.49Y-73.66
X110.49Y-92.71
X111.76Y-52.07
X111.76Y-71.12
X111.76Y-90.17
X116.84Y-52.07
X116.84Y-71.12
X116.84Y-90.17
X118.11Y-54.61
X118.11Y-73.66
X118.11Y-92.71
X129.54Y-54.61
X129.54Y-73.66
X129.54Y-92.71
X130.81Y-52.07
X130.81Y-71.12
X130.81Y-90.17
X135.89Y-52.07
X135.89Y-71.12
X135.89Y-90.17
X137.16Y-54.61
X137.16Y-73.66
X137.16Y-92.71
X148.59Y-54.61
X148.59Y-73.66
X148.59Y-92.71
X149.86Y-52.07
X149.86Y-71.12
X149.86Y-90.17
X154.94Y-52.07
X154.94Y-71.12
X154.94Y-90.17
X156.21Y-54.61
X156.21Y-73.66
X156.21Y-92.71
X160.34Y-117.475
X161.61Y-114.935
X166.69Y-114.935
X167.64Y-54.61
X167.64Y-73.66
X167.64Y-92.71
X167.96Y-117.475
X168.91Y-52.07
X168.91Y-71.12
X168.91Y-90.17
X173.99Y-52.07
X173.99Y-71.12
X173.99Y-90.17
X175.26Y-54.61
X175.26Y-73.66
X175.26Y-92.71
X179.39Y-117.475
X180.66Y-114.935
X185.74Y-114.935
X187.01Y-117.475
T6
X185.442Y-51.325
X185.442Y-58.325
T7
X90.17Y-57.15
X90.17Y-76.2
X90.17Y-95.25
X100.33Y-57.15
X100.33Y-76.2
X100.33Y-95.25
X109.22Y-57.15
X109.22Y-76.2
X109.22Y-95.25
X119.38Y-57.15
X119.38Y-76.2
X119.38Y-95.25
X128.27Y-57.15
X128.27Y-76.2
X128.27Y-95.25
X138.43Y-57.15
X138.43Y-76.2
X138.43Y-95.25
X147.32Y-57.15
X147.32Y-76.2
X147.32Y-95.25
X157.48Y-57.15
X157.48Y-76.2
X157.48Y-95.25
X159.07Y-120.015
X166.37Y-57.15
X166.37Y-76.2
X166.37Y-95.25
X169.23Y-120.015
X176.53Y-57.15
X176.53Y-76.2
X176.53Y-95.25
X178.12Y-120.015
X188.28Y-120.015
T8
X95.25Y-57.15
X95.25Y-76.2
X95.25Y-95.25
X114.3Y-57.15
X114.3Y-76.2
X114.3Y-95.25
X133.35Y-57.15
X133.35Y-76.2
X133.35Y-95.25
X152.4Y-57.15
X152.4Y-76.2
X152.4Y-95.25
X164.15Y-120.015
X171.45Y-57.15
X171.45Y-76.2
X171.45Y-95.25
X183.2Y-120.015
T3
X183.242Y-52.375G85X183.242Y-53.175
G05
X183.242Y-55.375G85X183.242Y-56.175
G05
X183.242Y-59.375G85X183.242Y-60.175
G05
X183.242Y-60.375G85X183.242Y-61.175
G05
X187.642Y-52.375G85X187.642Y-53.175
G05
X187.642Y-55.375G85X187.642Y-56.175
G05
X187.642Y-59.375G85X187.642Y-60.175
G05
X187.642Y-60.375G85X187.642Y-61.175
G05
M30
