%TF.GenerationSoftware,KiCad,Pcbnew,8.0.7*%
%TF.CreationDate,2025-01-05T02:21:24-08:00*%
%TF.ProjectId,risha,72697368-612e-46b6-9963-61645f706362,v1.0.0*%
%TF.SameCoordinates,Original*%
%TF.FileFunction,Other,ECO2*%
%FSLAX46Y46*%
G04 Gerber Fmt 4.6, Leading zero omitted, Abs format (unit mm)*
G04 Created by KiCad (PCBNEW 8.0.7) date 2025-01-05 02:21:24*
%MOMM*%
%LPD*%
G01*
G04 APERTURE LIST*
%ADD10C,0.050000*%
G04 APERTURE END LIST*
D10*
%TO.C,MX8*%
X126350000Y-82700000D02*
X126350000Y-69700000D01*
X126850000Y-69200000D02*
X139850000Y-69200000D01*
X139850000Y-83200000D02*
X126850000Y-83200000D01*
X140350000Y-69700000D02*
X140350000Y-82700000D01*
X126350000Y-69700000D02*
G75*
G02*
X126850000Y-69200000I500001J-1D01*
G01*
X126850000Y-83200000D02*
G75*
G02*
X126350000Y-82700000I1J500001D01*
G01*
X139850000Y-69200000D02*
G75*
G02*
X140350000Y-69700000I0J-500000D01*
G01*
X140347236Y-82698884D02*
G75*
G02*
X139847236Y-83198886I-499946J-56D01*
G01*
%TO.C,MX17*%
X176200000Y-126515000D02*
X176200000Y-113515000D01*
X176700000Y-113015000D02*
X189700000Y-113015000D01*
X189700000Y-127015000D02*
X176700000Y-127015000D01*
X190200000Y-113515000D02*
X190200000Y-126515000D01*
X176200000Y-113515000D02*
G75*
G02*
X176700000Y-113015000I500001J-1D01*
G01*
X176700000Y-127015000D02*
G75*
G02*
X176200000Y-126515000I1J500001D01*
G01*
X189700000Y-113015000D02*
G75*
G02*
X190200000Y-113515000I0J-500000D01*
G01*
X190197236Y-126513884D02*
G75*
G02*
X189697236Y-127013886I-499946J-56D01*
G01*
%TO.C,MX4*%
X107300000Y-101750000D02*
X107300000Y-88750000D01*
X107800000Y-88250000D02*
X120800000Y-88250000D01*
X120800000Y-102250000D02*
X107800000Y-102250000D01*
X121300000Y-88750000D02*
X121300000Y-101750000D01*
X107300000Y-88750000D02*
G75*
G02*
X107800000Y-88250000I500001J-1D01*
G01*
X107800000Y-102250000D02*
G75*
G02*
X107300000Y-101750000I1J500001D01*
G01*
X120800000Y-88250000D02*
G75*
G02*
X121300000Y-88750000I0J-500000D01*
G01*
X121297236Y-101748884D02*
G75*
G02*
X120797236Y-102248886I-499946J-56D01*
G01*
%TO.C,MX10*%
X145400000Y-101750000D02*
X145400000Y-88750000D01*
X145900000Y-88250000D02*
X158900000Y-88250000D01*
X158900000Y-102250000D02*
X145900000Y-102250000D01*
X159400000Y-88750000D02*
X159400000Y-101750000D01*
X145400000Y-88750000D02*
G75*
G02*
X145900000Y-88250000I500001J-1D01*
G01*
X145900000Y-102250000D02*
G75*
G02*
X145400000Y-101750000I1J500001D01*
G01*
X158900000Y-88250000D02*
G75*
G02*
X159400000Y-88750000I0J-500000D01*
G01*
X159397236Y-101748884D02*
G75*
G02*
X158897236Y-102248886I-499946J-56D01*
G01*
%TO.C,MX3*%
X88250000Y-63650000D02*
X88250000Y-50650000D01*
X88750000Y-50150000D02*
X101750000Y-50150000D01*
X101750000Y-64150000D02*
X88750000Y-64150000D01*
X102250000Y-50650000D02*
X102250000Y-63650000D01*
X88250000Y-50650000D02*
G75*
G02*
X88750000Y-50150000I500001J-1D01*
G01*
X88750000Y-64150000D02*
G75*
G02*
X88250000Y-63650000I1J500001D01*
G01*
X101750000Y-50150000D02*
G75*
G02*
X102250000Y-50650000I0J-500000D01*
G01*
X102247236Y-63648884D02*
G75*
G02*
X101747236Y-64148886I-499946J-56D01*
G01*
%TO.C,MX12*%
X145400000Y-63650000D02*
X145400000Y-50650000D01*
X145900000Y-50150000D02*
X158900000Y-50150000D01*
X158900000Y-64150000D02*
X145900000Y-64150000D01*
X159400000Y-50650000D02*
X159400000Y-63650000D01*
X145400000Y-50650000D02*
G75*
G02*
X145900000Y-50150000I500001J-1D01*
G01*
X145900000Y-64150000D02*
G75*
G02*
X145400000Y-63650000I1J500001D01*
G01*
X158900000Y-50150000D02*
G75*
G02*
X159400000Y-50650000I0J-500000D01*
G01*
X159397236Y-63648884D02*
G75*
G02*
X158897236Y-64148886I-499946J-56D01*
G01*
%TO.C,MX14*%
X164450000Y-82700000D02*
X164450000Y-69700000D01*
X164950000Y-69200000D02*
X177950000Y-69200000D01*
X177950000Y-83200000D02*
X164950000Y-83200000D01*
X178450000Y-69700000D02*
X178450000Y-82700000D01*
X164450000Y-69700000D02*
G75*
G02*
X164950000Y-69200000I500001J-1D01*
G01*
X164950000Y-83200000D02*
G75*
G02*
X164450000Y-82700000I1J500001D01*
G01*
X177950000Y-69200000D02*
G75*
G02*
X178450000Y-69700000I0J-500000D01*
G01*
X178447236Y-82698884D02*
G75*
G02*
X177947236Y-83198886I-499946J-56D01*
G01*
%TO.C,MX9*%
X126350000Y-63650000D02*
X126350000Y-50650000D01*
X126850000Y-50150000D02*
X139850000Y-50150000D01*
X139850000Y-64150000D02*
X126850000Y-64150000D01*
X140350000Y-50650000D02*
X140350000Y-63650000D01*
X126350000Y-50650000D02*
G75*
G02*
X126850000Y-50150000I500001J-1D01*
G01*
X126850000Y-64150000D02*
G75*
G02*
X126350000Y-63650000I1J500001D01*
G01*
X139850000Y-50150000D02*
G75*
G02*
X140350000Y-50650000I0J-500000D01*
G01*
X140347236Y-63648884D02*
G75*
G02*
X139847236Y-64148886I-499946J-56D01*
G01*
%TO.C,MX15*%
X164450000Y-63650000D02*
X164450000Y-50650000D01*
X164950000Y-50150000D02*
X177950000Y-50150000D01*
X177950000Y-64150000D02*
X164950000Y-64150000D01*
X178450000Y-50650000D02*
X178450000Y-63650000D01*
X164450000Y-50650000D02*
G75*
G02*
X164950000Y-50150000I500001J-1D01*
G01*
X164950000Y-64150000D02*
G75*
G02*
X164450000Y-63650000I1J500001D01*
G01*
X177950000Y-50150000D02*
G75*
G02*
X178450000Y-50650000I0J-500000D01*
G01*
X178447236Y-63648884D02*
G75*
G02*
X177947236Y-64148886I-499946J-56D01*
G01*
%TO.C,MX13*%
X164450000Y-101750000D02*
X164450000Y-88750000D01*
X164950000Y-88250000D02*
X177950000Y-88250000D01*
X177950000Y-102250000D02*
X164950000Y-102250000D01*
X178450000Y-88750000D02*
X178450000Y-101750000D01*
X164450000Y-88750000D02*
G75*
G02*
X164950000Y-88250000I500001J-1D01*
G01*
X164950000Y-102250000D02*
G75*
G02*
X164450000Y-101750000I1J500001D01*
G01*
X177950000Y-88250000D02*
G75*
G02*
X178450000Y-88750000I0J-500000D01*
G01*
X178447236Y-101748884D02*
G75*
G02*
X177947236Y-102248886I-499946J-56D01*
G01*
%TO.C,MX7*%
X126350000Y-101750000D02*
X126350000Y-88750000D01*
X126850000Y-88250000D02*
X139850000Y-88250000D01*
X139850000Y-102250000D02*
X126850000Y-102250000D01*
X140350000Y-88750000D02*
X140350000Y-101750000D01*
X126350000Y-88750000D02*
G75*
G02*
X126850000Y-88250000I500001J-1D01*
G01*
X126850000Y-102250000D02*
G75*
G02*
X126350000Y-101750000I1J500001D01*
G01*
X139850000Y-88250000D02*
G75*
G02*
X140350000Y-88750000I0J-500000D01*
G01*
X140347236Y-101748884D02*
G75*
G02*
X139847236Y-102248886I-499946J-56D01*
G01*
%TO.C,MX5*%
X107300000Y-82700000D02*
X107300000Y-69700000D01*
X107800000Y-69200000D02*
X120800000Y-69200000D01*
X120800000Y-83200000D02*
X107800000Y-83200000D01*
X121300000Y-69700000D02*
X121300000Y-82700000D01*
X107300000Y-69700000D02*
G75*
G02*
X107800000Y-69200000I500001J-1D01*
G01*
X107800000Y-83200000D02*
G75*
G02*
X107300000Y-82700000I1J500001D01*
G01*
X120800000Y-69200000D02*
G75*
G02*
X121300000Y-69700000I0J-500000D01*
G01*
X121297236Y-82698884D02*
G75*
G02*
X120797236Y-83198886I-499946J-56D01*
G01*
%TO.C,MX6*%
X107300000Y-63650000D02*
X107300000Y-50650000D01*
X107800000Y-50150000D02*
X120800000Y-50150000D01*
X120800000Y-64150000D02*
X107800000Y-64150000D01*
X121300000Y-50650000D02*
X121300000Y-63650000D01*
X107300000Y-50650000D02*
G75*
G02*
X107800000Y-50150000I500001J-1D01*
G01*
X107800000Y-64150000D02*
G75*
G02*
X107300000Y-63650000I1J500001D01*
G01*
X120800000Y-50150000D02*
G75*
G02*
X121300000Y-50650000I0J-500000D01*
G01*
X121297236Y-63648884D02*
G75*
G02*
X120797236Y-64148886I-499946J-56D01*
G01*
%TO.C,MX16*%
X157150000Y-126515000D02*
X157150000Y-113515000D01*
X157650000Y-113015000D02*
X170650000Y-113015000D01*
X170650000Y-127015000D02*
X157650000Y-127015000D01*
X171150000Y-113515000D02*
X171150000Y-126515000D01*
X157150000Y-113515000D02*
G75*
G02*
X157650000Y-113015000I500001J-1D01*
G01*
X157650000Y-127015000D02*
G75*
G02*
X157150000Y-126515000I1J500001D01*
G01*
X170650000Y-113015000D02*
G75*
G02*
X171150000Y-113515000I0J-500000D01*
G01*
X171147236Y-126513884D02*
G75*
G02*
X170647236Y-127013886I-499946J-56D01*
G01*
%TO.C,MX1*%
X88250000Y-101750000D02*
X88250000Y-88750000D01*
X88750000Y-88250000D02*
X101750000Y-88250000D01*
X101750000Y-102250000D02*
X88750000Y-102250000D01*
X102250000Y-88750000D02*
X102250000Y-101750000D01*
X88250000Y-88750000D02*
G75*
G02*
X88750000Y-88250000I500001J-1D01*
G01*
X88750000Y-102250000D02*
G75*
G02*
X88250000Y-101750000I1J500001D01*
G01*
X101750000Y-88250000D02*
G75*
G02*
X102250000Y-88750000I0J-500000D01*
G01*
X102247236Y-101748884D02*
G75*
G02*
X101747236Y-102248886I-499946J-56D01*
G01*
%TO.C,MX2*%
X88250000Y-82700000D02*
X88250000Y-69700000D01*
X88750000Y-69200000D02*
X101750000Y-69200000D01*
X101750000Y-83200000D02*
X88750000Y-83200000D01*
X102250000Y-69700000D02*
X102250000Y-82700000D01*
X88250000Y-69700000D02*
G75*
G02*
X88750000Y-69200000I500001J-1D01*
G01*
X88750000Y-83200000D02*
G75*
G02*
X88250000Y-82700000I1J500001D01*
G01*
X101750000Y-69200000D02*
G75*
G02*
X102250000Y-69700000I0J-500000D01*
G01*
X102247236Y-82698884D02*
G75*
G02*
X101747236Y-83198886I-499946J-56D01*
G01*
%TO.C,MX11*%
X145400000Y-82700000D02*
X145400000Y-69700000D01*
X145900000Y-69200000D02*
X158900000Y-69200000D01*
X158900000Y-83200000D02*
X145900000Y-83200000D01*
X159400000Y-69700000D02*
X159400000Y-82700000D01*
X145400000Y-69700000D02*
G75*
G02*
X145900000Y-69200000I500001J-1D01*
G01*
X145900000Y-83200000D02*
G75*
G02*
X145400000Y-82700000I1J500001D01*
G01*
X158900000Y-69200000D02*
G75*
G02*
X159400000Y-69700000I0J-500000D01*
G01*
X159397236Y-82698884D02*
G75*
G02*
X158897236Y-83198886I-499946J-56D01*
G01*
%TD*%
M02*
