%TF.GenerationSoftware,KiCad,Pcbnew,8.0.7*%
%TF.CreationDate,2025-01-05T02:21:24-08:00*%
%TF.ProjectId,risha,72697368-612e-46b6-9963-61645f706362,v1.0.0*%
%TF.SameCoordinates,Original*%
%TF.FileFunction,Soldermask,Top*%
%TF.FilePolarity,Negative*%
%FSLAX46Y46*%
G04 Gerber Fmt 4.6, Leading zero omitted, Abs format (unit mm)*
G04 Created by KiCad (PCBNEW 8.0.7) date 2025-01-05 02:21:24*
%MOMM*%
%LPD*%
G01*
G04 APERTURE LIST*
%ADD10C,1.850000*%
%ADD11C,4.087800*%
%ADD12C,2.400000*%
%ADD13C,1.700000*%
G04 APERTURE END LIST*
D10*
%TO.C,MX8*%
X128270000Y-76200000D03*
D11*
X133350000Y-76200000D03*
D10*
X138430000Y-76200000D03*
D12*
X135890000Y-71120000D03*
X137160000Y-73660000D03*
X129540000Y-73660000D03*
X130810000Y-71120000D03*
%TD*%
D10*
%TO.C,MX17*%
X178120000Y-120015000D03*
D11*
X183200000Y-120015000D03*
D10*
X188280000Y-120015000D03*
D12*
X185740000Y-114935000D03*
X187010000Y-117475000D03*
X179390000Y-117475000D03*
X180660000Y-114935000D03*
%TD*%
D10*
%TO.C,MX4*%
X109220000Y-95250000D03*
D11*
X114300000Y-95250000D03*
D10*
X119380000Y-95250000D03*
D12*
X116840000Y-90170000D03*
X118110000Y-92710000D03*
X110490000Y-92710000D03*
X111760000Y-90170000D03*
%TD*%
D10*
%TO.C,MX10*%
X147320000Y-95250000D03*
D11*
X152400000Y-95250000D03*
D10*
X157480000Y-95250000D03*
D12*
X154940000Y-90170000D03*
X156210000Y-92710000D03*
X148590000Y-92710000D03*
X149860000Y-90170000D03*
%TD*%
D10*
%TO.C,MX3*%
X90170000Y-57150000D03*
D11*
X95250000Y-57150000D03*
D10*
X100330000Y-57150000D03*
D12*
X97790000Y-52070000D03*
X99060000Y-54610000D03*
X91440000Y-54610000D03*
X92710000Y-52070000D03*
%TD*%
D10*
%TO.C,MX12*%
X147320000Y-57150000D03*
D11*
X152400000Y-57150000D03*
D10*
X157480000Y-57150000D03*
D12*
X154940000Y-52070000D03*
X156210000Y-54610000D03*
X148590000Y-54610000D03*
X149860000Y-52070000D03*
%TD*%
D10*
%TO.C,MX14*%
X166370000Y-76200000D03*
D11*
X171450000Y-76200000D03*
D10*
X176530000Y-76200000D03*
D12*
X173990000Y-71120000D03*
X175260000Y-73660000D03*
X167640000Y-73660000D03*
X168910000Y-71120000D03*
%TD*%
D10*
%TO.C,MX9*%
X128270000Y-57150000D03*
D11*
X133350000Y-57150000D03*
D10*
X138430000Y-57150000D03*
D12*
X135890000Y-52070000D03*
X137160000Y-54610000D03*
X129540000Y-54610000D03*
X130810000Y-52070000D03*
%TD*%
D10*
%TO.C,MX15*%
X166370000Y-57150000D03*
D11*
X171450000Y-57150000D03*
D10*
X176530000Y-57150000D03*
D12*
X173990000Y-52070000D03*
X175260000Y-54610000D03*
X167640000Y-54610000D03*
X168910000Y-52070000D03*
%TD*%
D10*
%TO.C,MX13*%
X166370000Y-95250000D03*
D11*
X171450000Y-95250000D03*
D10*
X176530000Y-95250000D03*
D12*
X173990000Y-90170000D03*
X175260000Y-92710000D03*
X167640000Y-92710000D03*
X168910000Y-90170000D03*
%TD*%
D10*
%TO.C,MX7*%
X128270000Y-95250000D03*
D11*
X133350000Y-95250000D03*
D10*
X138430000Y-95250000D03*
D12*
X135890000Y-90170000D03*
X137160000Y-92710000D03*
X129540000Y-92710000D03*
X130810000Y-90170000D03*
%TD*%
D10*
%TO.C,MX5*%
X109220000Y-76200000D03*
D11*
X114300000Y-76200000D03*
D10*
X119380000Y-76200000D03*
D12*
X116840000Y-71120000D03*
X118110000Y-73660000D03*
X110490000Y-73660000D03*
X111760000Y-71120000D03*
%TD*%
D10*
%TO.C,MX6*%
X109220000Y-57150000D03*
D11*
X114300000Y-57150000D03*
D10*
X119380000Y-57150000D03*
D12*
X116840000Y-52070000D03*
X118110000Y-54610000D03*
X110490000Y-54610000D03*
X111760000Y-52070000D03*
%TD*%
D10*
%TO.C,MX16*%
X159070000Y-120015000D03*
D11*
X164150000Y-120015000D03*
D10*
X169230000Y-120015000D03*
D12*
X166690000Y-114935000D03*
X167960000Y-117475000D03*
X160340000Y-117475000D03*
X161610000Y-114935000D03*
%TD*%
D10*
%TO.C,MX1*%
X90170000Y-95250000D03*
D11*
X95250000Y-95250000D03*
D10*
X100330000Y-95250000D03*
D12*
X97790000Y-90170000D03*
X99060000Y-92710000D03*
X91440000Y-92710000D03*
X92710000Y-90170000D03*
%TD*%
D13*
%TO.C,J1*%
X187642500Y-60775000D03*
X183242500Y-60775000D03*
X187642500Y-59775000D03*
X183242500Y-59775000D03*
X187642500Y-55775000D03*
X183242500Y-55775000D03*
X187642500Y-52775000D03*
X183242500Y-52775000D03*
%TD*%
D10*
%TO.C,MX2*%
X90170000Y-76200000D03*
D11*
X95250000Y-76200000D03*
D10*
X100330000Y-76200000D03*
D12*
X97790000Y-71120000D03*
X99060000Y-73660000D03*
X91440000Y-73660000D03*
X92710000Y-71120000D03*
%TD*%
D10*
%TO.C,MX11*%
X147320000Y-76200000D03*
D11*
X152400000Y-76200000D03*
D10*
X157480000Y-76200000D03*
D12*
X154940000Y-71120000D03*
X156210000Y-73660000D03*
X148590000Y-73660000D03*
X149860000Y-71120000D03*
%TD*%
M02*
