0
SECTION
2
HEADER
9
$INSUNITS
70
4
0
ENDSEC
0
SECTION
2
TABLES
0
TABLE
2
LTYPE
0
LTYPE
72
65
70
64
2
CONTINUOUS
3
______
73
0
40
0
0
ENDTAB
0
TABLE
2
LAYER
0
ENDTAB
0
ENDSEC
0
SECTION
2
ENTITIES
0
LINE
8
0
10
139.875
20
-190.5
11
139.875
21
-100.0125
0
LINE
8
0
10
142.875
20
-97.0125
11
242.875
21
-97.0125
0
LINE
8
0
10
245.875
20
-100.0125
11
245.875
21
-190.5
0
LINE
8
0
10
242.875
20
-193.5
11
142.875
21
-193.5
0
ARC
8
0
10
142.875
20
-100.0125
40
3
50
90
51
180
0
ARC
8
0
10
242.875
20
-100.0125
40
3
50
0
51
90
0
ARC
8
0
10
242.875
20
-190.5
40
3
50
270
51
0
0
ARC
8
0
10
142.875
20
-190.5
40
3
50
180
51
270
0
LINE
8
0
10
145.4
20
-159.4
11
159.4
21
-159.4
0
LINE
8
0
10
159.4
20
-159.4
11
159.4
21
-145.4
0
LINE
8
0
10
159.4
20
-145.4
11
145.4
21
-145.4
0
LINE
8
0
10
145.4
20
-145.4
11
145.4
21
-159.4
0
LINE
8
0
10
145.4
20
-140.35
11
159.4
21
-140.35
0
LINE
8
0
10
159.4
20
-140.35
11
159.4
21
-126.35
0
LINE
8
0
10
159.4
20
-126.35
11
145.4
21
-126.35
0
LINE
8
0
10
145.4
20
-126.35
11
145.4
21
-140.35
0
LINE
8
0
10
145.4
20
-121.3
11
159.4
21
-121.3
0
LINE
8
0
10
159.4
20
-121.3
11
159.4
21
-107.3
0
LINE
8
0
10
159.4
20
-107.3
11
145.4
21
-107.3
0
LINE
8
0
10
145.4
20
-107.3
11
145.4
21
-121.3
0
LINE
8
0
10
164.45
20
-159.4
11
178.45
21
-159.4
0
LINE
8
0
10
178.45
20
-159.4
11
178.45
21
-145.4
0
LINE
8
0
10
178.45
20
-145.4
11
164.45
21
-145.4
0
LINE
8
0
10
164.45
20
-145.4
11
164.45
21
-159.4
0
LINE
8
0
10
164.45
20
-140.35
11
178.45
21
-140.35
0
LINE
8
0
10
178.45
20
-140.35
11
178.45
21
-126.35
0
LINE
8
0
10
178.45
20
-126.35
11
164.45
21
-126.35
0
LINE
8
0
10
164.45
20
-126.35
11
164.45
21
-140.35
0
LINE
8
0
10
164.45
20
-121.3
11
178.45
21
-121.3
0
LINE
8
0
10
178.45
20
-121.3
11
178.45
21
-107.3
0
LINE
8
0
10
178.45
20
-107.3
11
164.45
21
-107.3
0
LINE
8
0
10
164.45
20
-107.3
11
164.45
21
-121.3
0
LINE
8
0
10
183.5
20
-159.4
11
197.5
21
-159.4
0
LINE
8
0
10
197.5
20
-159.4
11
197.5
21
-145.4
0
LINE
8
0
10
197.5
20
-145.4
11
183.5
21
-145.4
0
LINE
8
0
10
183.5
20
-145.4
11
183.5
21
-159.4
0
LINE
8
0
10
183.5
20
-140.35
11
197.5
21
-140.35
0
LINE
8
0
10
197.5
20
-140.35
11
197.5
21
-126.35
0
LINE
8
0
10
197.5
20
-126.35
11
183.5
21
-126.35
0
LINE
8
0
10
183.5
20
-126.35
11
183.5
21
-140.35
0
LINE
8
0
10
183.5
20
-121.3
11
197.5
21
-121.3
0
LINE
8
0
10
197.5
20
-121.3
11
197.5
21
-107.3
0
LINE
8
0
10
197.5
20
-107.3
11
183.5
21
-107.3
0
LINE
8
0
10
183.5
20
-107.3
11
183.5
21
-121.3
0
LINE
8
0
10
202.55
20
-159.4
11
216.55
21
-159.4
0
LINE
8
0
10
216.55
20
-159.4
11
216.55
21
-145.4
0
LINE
8
0
10
216.55
20
-145.4
11
202.55
21
-145.4
0
LINE
8
0
10
202.55
20
-145.4
11
202.55
21
-159.4
0
LINE
8
0
10
202.55
20
-140.35
11
216.55
21
-140.35
0
LINE
8
0
10
216.55
20
-140.35
11
216.55
21
-126.35
0
LINE
8
0
10
216.55
20
-126.35
11
202.55
21
-126.35
0
LINE
8
0
10
202.55
20
-126.35
11
202.55
21
-140.35
0
LINE
8
0
10
202.55
20
-121.3
11
216.55
21
-121.3
0
LINE
8
0
10
216.55
20
-121.3
11
216.55
21
-107.3
0
LINE
8
0
10
216.55
20
-107.3
11
202.55
21
-107.3
0
LINE
8
0
10
202.55
20
-107.3
11
202.55
21
-121.3
0
LINE
8
0
10
221.6
20
-159.4
11
235.6
21
-159.4
0
LINE
8
0
10
235.6
20
-159.4
11
235.6
21
-145.4
0
LINE
8
0
10
235.6
20
-145.4
11
221.6
21
-145.4
0
LINE
8
0
10
221.6
20
-145.4
11
221.6
21
-159.4
0
LINE
8
0
10
221.6
20
-140.35
11
235.6
21
-140.35
0
LINE
8
0
10
235.6
20
-140.35
11
235.6
21
-126.35
0
LINE
8
0
10
235.6
20
-126.35
11
221.6
21
-126.35
0
LINE
8
0
10
221.6
20
-126.35
11
221.6
21
-140.35
0
LINE
8
0
10
221.6
20
-121.3
11
235.6
21
-121.3
0
LINE
8
0
10
235.6
20
-121.3
11
235.6
21
-107.3
0
LINE
8
0
10
235.6
20
-107.3
11
221.6
21
-107.3
0
LINE
8
0
10
221.6
20
-107.3
11
221.6
21
-121.3
0
LINE
8
0
10
207.3
20
-187.975
11
221.3
21
-187.975
0
LINE
8
0
10
221.3
20
-187.975
11
221.3
21
-173.975
0
LINE
8
0
10
221.3
20
-173.975
11
207.3
21
-173.975
0
LINE
8
0
10
207.3
20
-173.975
11
207.3
21
-187.975
0
LINE
8
0
10
226.35
20
-187.975
11
240.35
21
-187.975
0
LINE
8
0
10
240.35
20
-187.975
11
240.35
21
-173.975
0
LINE
8
0
10
240.35
20
-173.975
11
226.35
21
-173.975
0
LINE
8
0
10
226.35
20
-173.975
11
226.35
21
-187.975
0
ENDSEC
0
EOF