<svg width="177.002" height="94.6" viewBox="0 0 177.002 94.6" xmlns="http://www.w3.org/2000/svg"><g id="svgGroup" stroke-linecap="round" fill-rule="evenodd" font-size="9pt" stroke="#000" stroke-width="0.5mm" fill="#000" style="stroke:#000;stroke-width:0.5mm;fill:#000"><path d="M 41.602 72.1 A 39.701 39.701 0 0 0 42.733 72.085 Q 44.398 72.037 45.866 71.847 A 21.923 21.923 0 0 0 48.702 71.3 Q 51.702 70.5 53.752 68.05 A 9.489 9.489 0 0 0 53.871 67.906 Q 55.216 66.232 56.276 63.396 A 33.985 33.985 0 0 0 57.202 60.5 L 56.302 60.5 A 26.323 26.323 0 0 0 56.296 61.037 Q 56.296 63.781 56.893 65.729 A 7.998 7.998 0 0 0 57.902 67.9 A 10.213 10.213 0 0 0 58.285 68.428 A 8.07 8.07 0 0 0 62.252 71.25 A 19.21 19.21 0 0 0 62.748 71.402 A 16.938 16.938 0 0 0 67.502 72.1 A 27.338 27.338 0 0 0 69.777 72.011 Q 72.627 71.772 74.552 70.9 Q 77.202 69.7 78.702 67.35 Q 79.546 66.029 80.263 64.374 A 30.85 30.85 0 0 0 81.302 61.6 L 80.502 61.6 A 24.264 24.264 0 0 0 80.674 62.857 Q 80.89 64.169 81.235 65.284 A 12.167 12.167 0 0 0 82.152 67.5 Q 83.402 69.8 86.002 70.95 A 11.2 11.2 0 0 0 87.785 71.555 Q 88.889 71.834 90.205 71.971 A 26.244 26.244 0 0 0 92.902 72.1 A 24.596 24.596 0 0 0 94.283 72.062 A 21.072 21.072 0 0 0 98.902 71.3 Q 101.702 70.5 103.702 68.2 A 8.664 8.664 0 0 0 104.911 66.359 Q 105.434 65.309 105.79 63.998 A 19.95 19.95 0 0 0 106.302 61.4 L 106.102 61.4 A 16.156 16.156 0 0 0 106.511 63.102 A 13.002 13.002 0 0 0 107.852 66.15 Q 109.102 68.2 111.152 69.5 A 13.467 13.467 0 0 0 113.57 70.698 A 18.362 18.362 0 0 0 116.102 71.45 Q 119.002 72.1 122.902 72.1 Q 123.502 72.1 123.902 71.65 Q 124.127 71.397 124.225 71.16 A 0.935 0.935 0 0 0 124.302 70.8 A 1.938 1.938 0 0 0 124.301 70.748 Q 124.289 70.285 124.052 70 A 0.724 0.724 0 0 0 123.785 69.803 Q 123.553 69.7 123.202 69.7 Q 119.658 69.635 117.04 69.182 A 20.219 20.219 0 0 1 114.552 68.6 Q 111.302 67.6 109.552 64.6 A 11.071 11.071 0 0 1 109.297 64.138 Q 108.241 62.112 107.561 58.899 A 44.108 44.108 0 0 1 107.002 55.6 Q 106.452 51.475 106.091 45.365 A 302.55 302.55 0 0 1 105.802 39.4 L 103.302 39.6 Q 103.502 41.8 103.752 45.55 Q 104.002 49.3 104.152 53 A 274.823 274.823 0 0 1 104.166 53.366 Q 104.302 56.82 104.302 59.1 A 25.884 25.884 0 0 1 104.297 59.606 Q 104.235 62.8 103.374 64.907 A 6.858 6.858 0 0 1 101.802 67.3 Q 99.302 69.7 93.002 69.7 A 26.505 26.505 0 0 1 90.804 69.615 Q 89.64 69.518 88.662 69.311 A 10.656 10.656 0 0 1 86.802 68.75 A 7.633 7.633 0 0 1 86.019 68.375 A 5.695 5.695 0 0 1 83.552 65.8 Q 82.602 63.8 82.602 60.6 A 14.731 14.731 0 0 1 82.602 60.525 Q 82.608 59.379 82.791 57.79 A 49.648 49.648 0 0 1 83.002 56.2 Q 83.402 53.5 83.902 50.75 Q 84.402 48 84.702 46.2 L 82.202 45.8 A 265.442 265.442 0 0 1 82.101 46.542 Q 81.394 51.706 80.666 55.468 A 77.943 77.943 0 0 1 79.952 58.8 Q 79.161 62.1 78.158 64.242 A 12.334 12.334 0 0 1 77.202 65.95 A 9.251 9.251 0 0 1 76.162 67.229 A 6.712 6.712 0 0 1 73.302 69 A 13.23 13.23 0 0 1 72.163 69.29 Q 71.164 69.499 69.997 69.602 A 27.431 27.431 0 0 1 67.602 69.7 Q 65.539 69.7 63.965 69.388 A 10.154 10.154 0 0 1 62.252 68.9 Q 60.202 68.1 59.252 66.1 A 8.291 8.291 0 0 1 58.698 64.494 Q 58.302 62.86 58.302 60.6 Q 58.302 59.002 58.515 57.231 A 38.996 38.996 0 0 1 59.102 53.75 A 445.763 445.763 0 0 1 59.14 53.57 Q 59.916 49.94 60.502 47.5 L 58.202 46.9 A 245.294 245.294 0 0 1 57.852 48.583 Q 56.245 56.165 54.802 60.45 Q 53.202 65.2 51.452 67.15 A 8.247 8.247 0 0 1 50.546 68.022 A 6.079 6.079 0 0 1 47.452 69.4 A 27.938 27.938 0 0 1 46.345 69.525 Q 45.379 69.614 44.268 69.658 A 57.475 57.475 0 0 1 42.002 69.7 L 41.602 72.1 Z M 28.302 59.3 L 28.602 61.6 A 38.229 38.229 0 0 1 18.962 62.951 Q 18.808 62.952 18.654 62.952 A 35.884 35.884 0 0 1 18.302 62.95 A 34.491 34.491 0 0 1 13.151 62.53 A 27.252 27.252 0 0 1 9.052 61.55 Q 4.902 60.2 2.452 57.6 Q 0.002 55 0.002 51.3 A 14.572 14.572 0 0 1 1.171 45.658 A 18.315 18.315 0 0 1 2.102 43.75 A 23.93 23.93 0 0 1 5.569 39.065 A 29.807 29.807 0 0 1 7.952 36.8 A 34.416 34.416 0 0 1 14.544 32.411 A 40.212 40.212 0 0 1 16.652 31.4 A 37.073 37.073 0 0 1 26.769 28.569 A 41.456 41.456 0 0 1 27.302 28.5 L 26.702 31.2 Q 22.102 31.7 17.752 33.6 A 34.167 34.167 0 0 0 10.94 37.531 A 31.407 31.407 0 0 0 9.952 38.3 A 27.057 27.057 0 0 0 6.696 41.402 A 21.492 21.492 0 0 0 4.502 44.35 A 14.164 14.164 0 0 0 3.042 47.485 A 11.233 11.233 0 0 0 2.502 50.9 A 7.918 7.918 0 0 0 2.937 53.566 A 7.023 7.023 0 0 0 4.152 55.7 A 10.294 10.294 0 0 0 7.218 58.194 A 12.794 12.794 0 0 0 8.502 58.8 A 21.185 21.185 0 0 0 11.955 59.86 A 27.093 27.093 0 0 0 14.602 60.3 A 36.271 36.271 0 0 0 18.843 60.547 A 38.548 38.548 0 0 0 21.552 60.45 Q 25.102 60.2 28.302 59.3 Z M 150.202 94.6 L 149.302 92.2 A 47.959 47.959 0 0 0 161.302 85.693 A 45.091 45.091 0 0 0 162.202 85 A 38.602 38.602 0 0 0 168.671 78.577 A 33.869 33.869 0 0 0 171.252 74.8 A 24.236 24.236 0 0 0 174.111 67.612 A 21.815 21.815 0 0 0 174.602 63 Q 174.602 59.2 173.602 55.45 A 46.186 46.186 0 0 0 171.38 49.087 A 51.967 51.967 0 0 0 170.852 47.9 A 84.096 84.096 0 0 0 167.645 41.659 A 94.764 94.764 0 0 0 166.802 40.2 L 169.102 38.9 A 77.796 77.796 0 0 1 173.931 48.846 A 69.963 69.963 0 0 1 174.802 51.15 A 40.091 40.091 0 0 1 176.417 56.932 A 29.971 29.971 0 0 1 177.002 62.7 Q 177.002 67.2 175.552 71.25 Q 174.102 75.3 171.552 78.85 Q 169.002 82.4 165.602 85.4 Q 162.202 88.4 158.252 90.7 Q 154.302 93 150.202 94.6 Z M 27.002 58.9 L 25.102 21 L 27.502 21 L 29.302 56.7 Q 29.602 61.8 30.602 64.65 Q 31.602 67.5 34.202 68.6 A 10.939 10.939 0 0 0 36.071 69.181 Q 38.069 69.627 40.939 69.69 A 44.011 44.011 0 0 0 41.902 69.7 Q 42.253 69.7 42.485 69.803 A 0.724 0.724 0 0 1 42.752 70 Q 42.989 70.285 43.001 70.748 A 1.938 1.938 0 0 1 43.002 70.8 A 0.935 0.935 0 0 1 42.925 71.16 Q 42.827 71.397 42.602 71.65 Q 42.202 72.1 41.602 72.1 Q 37.845 72.1 34.928 71.38 A 19.307 19.307 0 0 1 34.252 71.2 Q 31.102 70.3 29.202 67.45 A 10.386 10.386 0 0 1 28.053 65.064 Q 27.251 62.735 27.03 59.369 A 36.174 36.174 0 0 1 27.002 58.9 Z M 122.902 72.1 A 55.106 55.106 0 0 0 126.279 72.003 Q 129.639 71.796 132.052 71.15 Q 133.993 70.631 135.471 69.857 A 10.321 10.321 0 0 0 137.602 68.4 Q 139.602 66.6 140.352 63.9 Q 140.774 62.382 140.958 60.578 A 29.293 29.293 0 0 0 141.102 57.6 Q 141.102 56.04 140.901 54.194 A 48.656 48.656 0 0 0 140.502 51.35 Q 139.902 47.8 138.752 43.7 A 97.626 97.626 0 0 0 138.305 42.156 A 109.164 109.164 0 0 0 136.002 35.3 L 133.702 36.2 Q 135.402 40.8 136.502 44.7 Q 137.602 48.6 138.152 51.9 Q 138.702 55.2 138.702 58.1 A 23.992 23.992 0 0 1 138.662 59.513 Q 138.487 62.478 137.552 64.55 A 6.247 6.247 0 0 1 137.177 65.257 Q 135.928 67.287 133.102 68.4 A 12.153 12.153 0 0 1 132.165 68.724 Q 128.935 69.7 123.302 69.7 L 122.902 72.1 Z M 14.427 4.525 A 2.591 2.591 0 0 0 16.302 5.3 Q 17.402 5.3 18.152 4.5 Q 18.902 3.7 18.902 2.7 Q 18.902 1.6 18.152 0.8 Q 17.402 0 16.302 0 A 2.634 2.634 0 0 0 15.359 0.168 A 2.711 2.711 0 0 0 14.402 0.8 A 3.269 3.269 0 0 0 14.377 0.826 A 2.591 2.591 0 0 0 13.602 2.7 A 2.319 2.319 0 0 0 13.884 3.817 A 2.949 2.949 0 0 0 14.402 4.5 A 3.269 3.269 0 0 0 14.427 4.525 Z M 137.927 87.825 A 2.591 2.591 0 0 0 139.802 88.6 Q 140.902 88.6 141.652 87.8 Q 142.402 87 142.402 86 Q 142.402 84.9 141.652 84.1 Q 140.902 83.3 139.802 83.3 A 2.634 2.634 0 0 0 138.859 83.468 A 2.711 2.711 0 0 0 137.902 84.1 A 3.269 3.269 0 0 0 137.877 84.126 A 2.591 2.591 0 0 0 137.102 86 A 2.319 2.319 0 0 0 137.384 87.117 A 2.949 2.949 0 0 0 137.902 87.8 A 3.269 3.269 0 0 0 137.927 87.825 Z M 24.927 4.525 A 2.591 2.591 0 0 0 26.802 5.3 Q 27.902 5.3 28.652 4.5 Q 29.402 3.7 29.402 2.7 Q 29.402 1.6 28.652 0.8 Q 27.902 0 26.802 0 A 2.634 2.634 0 0 0 25.859 0.168 A 2.711 2.711 0 0 0 24.902 0.8 A 3.269 3.269 0 0 0 24.877 0.826 A 2.591 2.591 0 0 0 24.102 2.7 A 2.319 2.319 0 0 0 24.384 3.817 A 2.949 2.949 0 0 0 24.902 4.5 A 3.269 3.269 0 0 0 24.927 4.525 Z M 127.427 87.825 A 2.591 2.591 0 0 0 129.302 88.6 Q 130.402 88.6 131.152 87.8 Q 131.902 87 131.902 86 Q 131.902 84.9 131.152 84.1 Q 130.402 83.3 129.302 83.3 A 2.634 2.634 0 0 0 128.359 83.468 A 2.711 2.711 0 0 0 127.402 84.1 A 3.269 3.269 0 0 0 127.377 84.126 A 2.591 2.591 0 0 0 126.602 86 A 2.319 2.319 0 0 0 126.884 87.117 A 2.949 2.949 0 0 0 127.402 87.8 A 3.269 3.269 0 0 0 127.427 87.825 Z M 82.509 16.072 A 2.381 2.381 0 0 0 84.002 16.6 A 2.634 2.634 0 0 0 84.945 16.433 A 2.711 2.711 0 0 0 85.902 15.8 A 3.269 3.269 0 0 0 85.927 15.775 A 2.591 2.591 0 0 0 86.702 13.9 Q 86.702 12.8 85.902 12.05 Q 85.102 11.3 84.002 11.3 A 2.442 2.442 0 0 0 82.968 11.525 A 2.89 2.89 0 0 0 82.202 12.05 Q 81.402 12.8 81.402 13.9 A 2.634 2.634 0 0 0 81.569 14.843 A 2.711 2.711 0 0 0 82.202 15.8 A 3.272 3.272 0 0 0 82.509 16.072 Z M 77.309 24.372 A 2.381 2.381 0 0 0 78.802 24.9 A 2.634 2.634 0 0 0 79.745 24.733 A 2.711 2.711 0 0 0 80.702 24.1 A 3.269 3.269 0 0 0 80.727 24.075 A 2.591 2.591 0 0 0 81.502 22.2 Q 81.502 21.1 80.702 20.35 Q 79.902 19.6 78.802 19.6 A 2.442 2.442 0 0 0 77.768 19.825 A 2.89 2.89 0 0 0 77.002 20.35 Q 76.202 21.1 76.202 22.2 A 2.634 2.634 0 0 0 76.369 23.143 A 2.711 2.711 0 0 0 77.002 24.1 A 3.272 3.272 0 0 0 77.309 24.372 Z M 87.809 24.372 A 2.381 2.381 0 0 0 89.302 24.9 A 2.634 2.634 0 0 0 90.245 24.733 A 2.711 2.711 0 0 0 91.202 24.1 A 3.269 3.269 0 0 0 91.227 24.075 A 2.591 2.591 0 0 0 92.002 22.2 Q 92.002 21.1 91.202 20.35 Q 90.402 19.6 89.302 19.6 A 2.442 2.442 0 0 0 88.268 19.825 A 2.89 2.89 0 0 0 87.502 20.35 Q 86.702 21.1 86.702 22.2 A 2.634 2.634 0 0 0 86.869 23.143 A 2.711 2.711 0 0 0 87.502 24.1 A 3.272 3.272 0 0 0 87.809 24.372 Z" vector-effect="non-scaling-stroke"/></g></svg>